# Apple ModelIO OBJ File: Counter_UV_1
mtllib Counter_UV_1.mtl
g pCube1_initialShadingGroup
v -1.3902 0.300538 4.67135
v 0.000139 0.300538 4.67135
v 0.000139 4.67575 4.67135
v -1.3902 4.67575 4.67135
v -1.3902 4.67575 -4.67135
v 1.3902 4.67575 -4.67135
v 1.3902 0.300538 -4.67135
v -1.3902 0.300538 -4.67135
v 1.3902 4.67575 2.23689
v 1.3902 0.300538 2.23689
v 0.309457 0.300538 4.61031
v 0.309457 4.67575 4.61031
v 0.603264 0.300538 4.43026
v 0.603264 4.67575 4.43026
v 0.866828 0.300538 4.14023
v 0.866828 4.67575 4.14023
v 1.08693 0.300538 3.75475
v 1.08693 4.67575 3.75475
v 1.25254 0.300538 3.29316
v 1.25254 4.67575 3.29316
v 1.35535 0.300538 2.77861
v 1.35535 4.67575 2.77861
vn 0 0 1
vn 0.035888 0 0.999356
vn 0 0 -1
vn 0.999989 0 0.004678
vn 1 0 0
vn -1 0 0
vn 0.371175 0 0.928563
vn 0.644714 0 0.764424
vn 0.813072 0 0.582163
vn 0.910089 0 0.414412
vn 0.964211 0 0.265135
vn 0.991614 0 0.129233
vn 0 -1 -0
vn 0 1 0
vt 0.001882 0.001992
vt 0.166644 0.001992
vt 0.166644 0.331483
vt 0.001882 0.331483
vt 0.302215 0.001992
vt 0.631706 0.001992
vt 0.631706 0.331483
vt 0.302215 0.331483
vt 0.692722 0.331483
vt 0.692722 0.001992
vt 0.936357 0.001992
vt 0.936357 0.331483
vt 0.613444 0.335254
vt 0.942935 0.335254
vt 0.942935 0.664745
vt 0.613444 0.664745
vt 0.2033 0.001992
vt 0.2033 0.331483
vt 0.238117 0.001992
vt 0.238117 0.331483
vt 0.269351 0.001992
vt 0.269351 0.331483
vt 0.295434 0.001992
vt 0.295434 0.331483
vt 0.639192 0.001992
vt 0.655471 0.001992
vt 0.655471 0.331483
vt 0.639192 0.331483
vt 0.673618 0.001992
vt 0.673618 0.331483
vt 0.442918 0.664746
vt 0.278156 0.664746
vt 0.278156 0.335254
vt 0.479574 0.662593
vt 0.514391 0.656243
vt 0.545625 0.646014
vt 0.571708 0.63242
vt 0.591334 0.616141
vt 0.603517 0.597994
vt 0.607647 0.578889
vt 0.607647 0.335254
vt 0.087739 0.668517
vt 0.331373 0.668517
vt 0.331373 0.998008
vt 0.001882 0.998008
vt 0.001882 0.833246
vt 0.004035 0.79659
vt 0.010384 0.761773
vt 0.020613 0.730539
vt 0.034208 0.704456
vt 0.050487 0.68483
vt 0.068634 0.672647
usemtl initialShadingGroup
f 1/1/1 2/2/2 3/3/2
f 1/1/1 3/3/2 4/4/1
f 5/5/3 6/6/3 7/7/3
f 5/5/3 7/7/3 8/8/3
f 9/9/4 10/10/4 7/11/5
f 9/9/4 7/11/5 6/12/5
f 8/13/6 1/14/6 4/15/6
f 8/13/6 4/15/6 5/16/6
f 2/2/2 11/17/7 12/18/7
f 2/2/2 12/18/7 3/3/2
f 11/17/7 13/19/8 14/20/8
f 11/17/7 14/20/8 12/18/7
f 13/19/8 15/21/9 16/22/9
f 13/19/8 16/22/9 14/20/8
f 15/21/9 17/23/10 18/24/10
f 15/21/9 18/24/10 16/22/9
f 17/25/10 19/26/11 20/27/11
f 17/25/10 20/27/11 18/28/10
f 19/26/11 21/29/12 22/30/12
f 19/26/11 22/30/12 20/27/11
f 21/29/12 10/10/4 9/9/4
f 21/29/12 9/9/4 22/30/12
f 2/31/13 1/32/13 8/33/13
f 11/34/13 2/31/13 8/33/13
f 13/35/13 11/34/13 8/33/13
f 15/36/13 13/35/13 8/33/13
f 17/37/13 15/36/13 8/33/13
f 19/38/13 17/37/13 8/33/13
f 21/39/13 19/38/13 8/33/13
f 10/40/13 21/39/13 8/33/13
f 7/41/13 10/40/13 8/33/13
f 9/42/14 6/43/14 5/44/14
f 9/42/14 5/44/14 4/45/14
f 9/42/14 4/45/14 3/46/14
f 9/42/14 3/46/14 12/47/14
f 9/42/14 12/47/14 14/48/14
f 9/42/14 14/48/14 16/49/14
f 9/42/14 16/49/14 18/50/14
f 9/42/14 18/50/14 20/51/14
f 9/42/14 20/51/14 22/52/14
s off
